<?xml version="1.0" standalone="no"?>
<!DOCTYPE svg PUBLIC "-//W3C//DTD SVG 20010904//EN"
 "http://www.w3.org/TR/2001/REC-SVG-20010904/DTD/svg10.dtd">
<svg version="1.0" xmlns="http://www.w3.org/2000/svg"
 width="512.000000pt" height="512.000000pt" viewBox="0 0 512.000000 512.000000"
 preserveAspectRatio="xMidYMid meet">

<g transform="translate(0.000000,512.000000) scale(0.100000,-0.100000)"
fill="#000000" stroke="none">
<path d="M0 2560 l0 -2560 2560 0 2560 0 0 2560 0 2560 -2560 0 -2560 0 0
-2560z m3851 1691 c10 -13 19 -32 19 -42 0 -16 -8 -19 -50 -19 l-50 0 0 -215
0 -215 50 0 c46 0 50 -2 50 -24 0 -15 -12 -34 -31 -50 l-31 -26 -1259 0 -1259
0 0 310 0 310 343 2 c188 2 760 1 1270 -2 l929 -5 19 -24z m-2973 -278 l-3
-308 -40 -3 c-61 -4 -116 18 -142 57 -22 33 -23 41 -23 253 0 185 3 224 16
247 26 44 62 60 132 61 l62 0 -2 -307z m122 -3 l0 -310 -25 0 -25 0 0 310 0
310 25 0 25 0 0 -310z m208 3 l-3 -308 -82 -3 -83 -3 0 311 0 310 85 0 85 0
-2 -307z m1056 -475 c3 -13 4 -140 3 -283 l-2 -260 -607 -3 -608 -2 0 285 0
285 605 0 605 0 4 -22z m1722 -694 l686 -9 19 -24 c10 -12 16 -27 13 -32 -3
-5 -34 -9 -70 -9 l-64 0 0 -160 0 -159 68 -3 c76 -3 86 -17 39 -52 -28 -21
-32 -21 -842 -24 -738 -3 -814 -1 -829 13 -23 24 -24 425 -1 449 14 13 11 15
-20 18 l-36 3 66 65 65 64 0 -67 0 -67 45 0 45 0 0 112 0 112 63 64 62 63 3
-174 2 -174 686 -9z m-3051 -74 c-38 -38 -73 -70 -77 -70 -5 0 -8 32 -8 70 l0
70 77 0 77 0 -69 -70z m1765 -413 c25 -13 25 -13 28 -179 2 -158 1 -168 -17
-178 -14 -7 -248 -10 -752 -8 -717 3 -731 3 -745 23 -14 19 -13 20 41 23 l55
3 0 134 0 135 -56 0 c-64 0 -69 14 -13 42 31 17 87 18 734 18 544 0 706 -3
725 -13z m1835 -317 c-9 -17 -28 -36 -43 -43 -23 -10 2 -13 154 -17 158 -4
185 -7 202 -23 28 -26 52 -79 52 -116 l0 -30 -67 -3 -68 -3 0 -375 0 -375 68
-3 67 -3 0 -30 c0 -43 -23 -92 -55 -117 l-28 -22 -726 0 -726 0 85 85 85 85
-378 0 -377 0 2 378 3 377 750 2 749 3 91 90 90 90 -100 0 -100 0 140 140 140
140 3 -100 c2 -76 -1 -107 -13 -130z"/>
<path d="M1994 3975 c0 -115 2 -161 3 -102 2 59 2 154 0 210 -1 56 -3 8 -3
-108z"/>
<path d="M3880 2579 l0 -91 53 29 52 30 45 -28 c25 -15 48 -28 53 -28 4 -1 7
40 7 89 l0 90 -105 0 -105 0 0 -91z"/>
<path d="M2580 2135 c0 -113 2 -135 15 -135 13 0 15 22 15 135 0 113 -2 135
-15 135 -13 0 -15 -22 -15 -135z"/>
</g>
</svg>
